<svg xmlns="http://www.w3.org/2000/svg" viewBox="0 0 400 80">
  <defs>
    <style>
      .text { font-family: 'Arial', sans-serif; font-weight: bold; font-size: 14px; fill: #000; letter-spacing: 0.05em; }
      .divider { fill: none; stroke: #000; stroke-width: 2; }
      .skv-shape { fill: #000; }
    </style>
  </defs>
  
  <!-- SKV Manual Shapes (Approximate to provided image) -->
  <g transform="translate(10, 15)">
    <!-- S -->
    <path class="skv-shape" d="M0,0 L60,0 L60,12 L15,12 L15,22 L60,22 L60,50 L0,50 L0,38 L45,38 L45,28 L0,28 Z" />
    <!-- K -->
    <path class="skv-shape" d="M70,0 L85,0 L85,20 L115,0 L135,0 L100,25 L135,50 L115,50 L85,30 L85,50 L70,50 Z" />
    <!-- V -->
    <path class="skv-shape" d="M140,0 L155,0 L172,35 L190,0 L205,0 L180,50 L165,50 Z" />
  </g>

  <!-- Divider -->
  <line x1="225" y1="15" x2="225" y2="65" class="divider" />

  <!-- Text -->
  <text x="240" y="32" class="text">COMUNICAÇÃO VISUAL,</text>
  <text x="240" y="52" class="text">BRINDES E CONFECÇÃO</text>
</svg>
